<svg xmlns="http://www.w3.org/2000/svg" width="58" height="58" viewBox="0 0 58 58">
  <defs>
    <style>
      .cls-1 {
        opacity: 0;
      }

      .cls-2 {
        fill: #fff;
      }
    </style>
  </defs>
  <title>garant</title>
  <g id="Слой_2" data-name="Слой 2">
    <g id="Слой_1-2" data-name="Слой 1">
      <g>
        <g class="cls-1">
          <rect class="cls-2" width="58" height="58"/>
        </g>
        <path d="M28.5,12A14.5,14.5,0,1,1,14,26.5,14.5,14.5,0,0,1,28.5,12m0-1A15.5,15.5,0,1,0,44,26.5,15.5,15.5,0,0,0,28.5,11Z"/>
        <path d="M28.5,15A11.5,11.5,0,1,1,17,26.5,11.4,11.4,0,0,1,28.5,15m0-1A12.5,12.5,0,1,0,41,26.5,12.5,12.5,0,0,0,28.5,14Z"/>
        <path d="M25,32h3V21.2l-.5.6-2.8,2-.5-.6L28.5,20H29V32h3v1H25Z"/>
        <path d="M54.5,26.5a.5.5,0,0,0-.2-.4l-8.5-6.8L47,8.5c0-.2,0-.3-.1-.4l-.4-.2L35.7,9.2,28.9.7a.5.5,0,0,0-.8,0L21.3,9.2,10.5,7.9l-.4.2c-.1.1-.1.2-.1.4l1.2,10.8L2.7,26.1a.5.5,0,0,0-.2.4.8.8,0,0,0,.2.4l8.5,6.7L10,44.4a.9.9,0,0,0,.1.5h.4l4.7-.5L11.3,51a1.4,1.4,0,0,0,.1,1.1,1.2,1.2,0,0,0,.8.4h.1l4.9-.6,1.9,4.5a1,1,0,0,0,.8.6H20a1.1,1.1,0,0,0,.9-.5l4.5-7.7,2.7,3.5.4.2a.5.5,0,0,0,.4-.2l3.3-4.2,4.9,8.4a1.1,1.1,0,0,0,.9.5h0a1,1,0,0,0,.9-.6l1.9-4.5,4.8.6h.2a1.2,1.2,0,0,0,.8-.4,1.1,1.1,0,0,0,0-1.1l-3.7-6.4,3.6.4a.4.4,0,0,0,.4-.2c.1-.1.2-.2.1-.4L45.8,33.6l8.5-6.7A.8.8,0,0,0,54.5,26.5ZM20,56l-2.2-5.2-5.6.7,4.2-7.2,4.9-.5L24.7,48Zm25.8-4.5-5.7-.7L38,56l-5.1-8.7h-.1l2.9-3.6,5.9.7ZM44.9,33a.4.4,0,0,0-.1.5L46,43.9,35.5,42.7a.5.5,0,0,0-.4.2l-6.6,8.3L22,42.9l-.4-.2h-.1L11,43.9l1.2-10.4a.4.4,0,0,0-.1-.5L3.8,26.5l8.3-6.6c.1-.1.2-.3.1-.4L11,9l10.5,1.2c.2,0,.3,0,.4-.2l6.6-8.2L35,10a.6.6,0,0,0,.5.2L46,9,44.8,19.5c-.1.1,0,.3.1.4l8.3,6.6Z"/>
      </g>
    </g>
  </g>
</svg>
