<svg xmlns="http://www.w3.org/2000/svg" width="58" height="58" viewBox="0 0 58 58">
  <defs>
    <style>
      .cls-1 {
        opacity: 0;
      }

      .cls-2 {
        fill: #fff;
      }

      .cls-3 {
        fill-rule: evenodd;
      }
    </style>
  </defs>
  <title>certificate</title>
  <g id="Слой_2" data-name="Слой 2">
    <g id="Слой_1-2" data-name="Слой 1">
      <g>
        <g class="cls-1">
          <rect class="cls-2" width="58" height="58"/>
        </g>
        <path class="cls-3" d="M12.2,42.1a4.5,4.5,0,0,1-3.3-1.4,4.4,4.4,0,0,1-1.3-3.2V25.4a8.4,8.4,0,0,1,2.3-5.7,8,8,0,0,1,11.4,0,8.4,8.4,0,0,1,2.3,5.7A7.9,7.9,0,0,1,21.3,31a8,8,0,0,1-5.7,2.4h-1l-1-.2h-.4V27.2l.8.6.7.3.9.2a3.1,3.1,0,0,0,2.9-2.9,3.3,3.3,0,0,0-.9-2.1,2.8,2.8,0,0,0-2-.8,3.2,3.2,0,0,0-2.1.8,3.2,3.2,0,0,0-.8,2.1V42.1ZM9.7,40a3.1,3.1,0,0,0,2,1.1V25.4a3.9,3.9,0,0,1,1.1-2.8h0a3.9,3.9,0,0,1,2.8-1.1,3.9,3.9,0,0,1,2.7,1.1h0a4,4,0,0,1,1.2,2.8,4,4,0,0,1-1.2,2.7h0a4,4,0,0,1-2.7,1.2l-1.2-.2h-.2v3.3h1.4a6.9,6.9,0,0,0,5-2.1,6.6,6.6,0,0,0,2-4.9,6.9,6.9,0,0,0-2-5,6.9,6.9,0,0,0-5-2.1,7.1,7.1,0,0,0-5,2.1,7.3,7.3,0,0,0-2,5V37.5A3.3,3.3,0,0,0,9.7,40ZM42.2,24H56v5.2H52.6v5.7H45.1V29.2H41.7V24ZM55,25H42.7v3.2h3.4v5.7h5.5V28.2H55V25ZM48.1,14.4a55.9,55.9,0,0,0-8.2-3.5A38.5,38.5,0,0,0,28.4,9c-7,0-13.6,1.8-18.3,5.7S3.5,23,3.5,29.6,5.9,41.2,9.8,44.5,20.7,50,27.7,50a38.2,38.2,0,0,0,12.4-2.1,45.6,45.6,0,0,0,8-3.5V37.2a34.6,34.6,0,0,1-6,2.6,22.6,22.6,0,0,1-6.4,1.1c-5.5,0-9-2.9-10.5-6.6a12.2,12.2,0,0,1,0-9.2,10.5,10.5,0,0,1,10.1-6.7,26.2,26.2,0,0,1,7.5,1.2c2,.7,3.8,1.4,5.3,2.1V14.4ZM40.2,10A36.9,36.9,0,0,0,28.4,8c-7.2,0-14.1,1.9-19,5.9S2.5,22.6,2.5,29.6,5,41.7,9.2,45.2,20.5,51,27.7,51a40.2,40.2,0,0,0,12.7-2.1,44.2,44.2,0,0,0,8.5-3.8h.2V35.4l-.7.5a38.2,38.2,0,0,1-6.6,3,20.5,20.5,0,0,1-6.1,1c-5,0-8.2-2.6-9.6-6a12,12,0,0,1-.8-4.2,10.1,10.1,0,0,1,.8-4.2,9.4,9.4,0,0,1,9.2-6.1,24.1,24.1,0,0,1,7.2,1.2A37.8,37.8,0,0,1,48.4,23l.7.4V13.8h-.3A45,45,0,0,0,40.2,10Z"/>
      </g>
    </g>
  </g>
</svg>
