<svg xmlns="http://www.w3.org/2000/svg" width="58" height="58" viewBox="0 0 58 58">
  <defs>
    <style>
      .cls-1 {
        opacity: 0;
      }

      .cls-2 {
        fill: #fff;
      }
    </style>
  </defs>
  <title>money</title>
  <g id="Слой_2" data-name="Слой 2">
    <g id="Слой_1-2" data-name="Слой 1">
      <g>
        <g class="cls-1">
          <rect class="cls-2" width="58" height="58"/>
        </g>
        <path d="M45,34a2.9,2.9,0,0,1-3-3,.5.5,0,0,1,1,0,2,2,0,0,0,4,0,.5.5,0,0,1,1,0A2.9,2.9,0,0,1,45,34Z"/>
        <path d="M21.5,15H22v2.5a.5.5,0,0,0,1,0V15h1.5a.5.5,0,0,0,0-1H23V12h2.5A3.5,3.5,0,0,0,29,8.5,3.5,3.5,0,0,0,25.5,5h-3a.5.5,0,0,0-.5.5V14h-.5a.5.5,0,0,0,0,1ZM28,8.5A2.5,2.5,0,0,1,25.5,11H23V6h2.5A2.5,2.5,0,0,1,28,8.5Z"/>
        <path d="M55.1,31H54a1.8,1.8,0,0,1-1.8-1.4,18.8,18.8,0,0,0-3.4-5.8,7.7,7.7,0,0,0,.2-1.5V15a1.2,1.2,0,0,0-.4-.8L48,14h-.3l-7.2,2.4a3.1,3.1,0,0,0-1.4.7,19.9,19.9,0,0,0-4-1.1,11.8,11.8,0,0,0,.9-4.6,11.5,11.5,0,1,0-20.1,7.6A19,19,0,0,0,6.3,31.8a11.9,11.9,0,0,1-2.8-1,5.5,5.5,0,0,0-.3-3.6A1.2,1.2,0,0,0,2,26.6c-.6,0-1.1.5-1.5,1.3a2.3,2.3,0,0,0-.1,1.8,5.3,5.3,0,0,0,1.9,1.7A21.6,21.6,0,0,1,.5,36.3a.5.5,0,0,0,.2.6H.9a.5.5,0,0,0,.5-.3,32,32,0,0,0,1.9-4.9,25.3,25.3,0,0,0,2.8,1c0,.6-.1,1.3-.1,2,0,6.1,3.5,11.6,9,15.1a2.1,2.1,0,0,1,1,1.7V55a2.9,2.9,0,0,0,3,3h2a2.9,2.9,0,0,0,3-3h0a1.2,1.2,0,0,1,1.2-1.2h.1a29.7,29.7,0,0,0,4.2.3l3.2-.2h.1A1.2,1.2,0,0,1,34,55a2.9,2.9,0,0,0,3,3h2a2.9,2.9,0,0,0,3-3V52.2a1.9,1.9,0,0,1,1-1.7,20.5,20.5,0,0,0,8.7-9.3A2,2,0,0,1,53.5,40h1.6A2.9,2.9,0,0,0,58,37.1V33.9A2.9,2.9,0,0,0,55.1,31ZM2.5,30.4a4.5,4.5,0,0,1-1.2-1.2,1,1,0,0,1,.1-.9c.3-.6.6-.7.7-.7h.2A4.1,4.1,0,0,1,2.5,30.4Zm38.3-13L48,15v7.3a4.9,4.9,0,0,1-7.7,3.8C37.2,23.8,37.1,18.7,40.8,17.4ZM24.5,1A10.5,10.5,0,1,1,14,11.5,10.5,10.5,0,0,1,24.5,1ZM57,37.1A1.8,1.8,0,0,1,55.1,39H53.5a3.1,3.1,0,0,0-2.8,1.8,18.8,18.8,0,0,1-8.2,8.8A3.2,3.2,0,0,0,41,52.2V55a2,2,0,0,1-2,2H37a2,2,0,0,1-2-2,2.2,2.2,0,0,0-2.2-2.2h-.2l-3.1.2a26.9,26.9,0,0,1-4-.3h-.3A2.2,2.2,0,0,0,23,54.9h0a2,2,0,0,1-2,2H19a2,2,0,0,1-2-2V51.6a2.9,2.9,0,0,0-1.4-2.5C10.1,45.6,7,40.4,7,34.8a15,15,0,0,1,.2-2.2h0v-.2c.9-5.1,4.4-9.6,9.4-12.5A10.2,10.2,0,0,0,19.8,22H16.5a.5.5,0,0,0,0,1h16a.5.5,0,0,0,0-1H29.2a11.4,11.4,0,0,0,5.4-5,21.2,21.2,0,0,1,3.6,1,4.4,4.4,0,0,0-1.1,2.5,6.8,6.8,0,0,0,2.6,6.4A6,6,0,0,0,43.1,28a5.8,5.8,0,0,0,5.2-3.2A15.7,15.7,0,0,1,51.2,30,3,3,0,0,0,54,32h1.1A1.8,1.8,0,0,1,57,33.9Z"/>
      </g>
    </g>
  </g>
</svg>
