<svg xmlns="http://www.w3.org/2000/svg" width="58" height="58" viewBox="0 0 58 58">
  <defs>
    <style>
      .cls-1 {
        opacity: 0;
      }

      .cls-2 {
        fill: #fff;
      }
    </style>
  </defs>
  <title>Ecology</title>
  <g id="Слой_2" data-name="Слой 2">
    <g id="Слой_1-2" data-name="Слой 1">
      <g>
        <g class="cls-1">
          <rect class="cls-2" width="58" height="58"/>
        </g>
        <path d="M51,15a1,1,0,0,0-1-1h0c-.5,0-11.3.4-14.9,7.6a5.9,5.9,0,0,0,0,5.2A2.5,2.5,0,0,0,37,28a44.5,44.5,0,0,0-4.4,7.8,47.7,47.7,0,0,0-4.4-11.6h.4a5.2,5.2,0,0,0,3.8-1.5A6.4,6.4,0,0,0,34,18C33.6,6.1,13.1,2.2,12.2,2H12l-.6.2a1,1,0,0,0-.4.7c-.1.6-1.5,16,3.2,21.7a8.7,8.7,0,0,0,6.6,3.3,8.1,8.1,0,0,0,6.4-3.4A46.2,46.2,0,0,1,32,37.6a.5.5,0,0,0,.5.4h0a.5.5,0,0,0,.5-.3,39.5,39.5,0,0,1,4.7-8.9,7.3,7.3,0,0,0,6.1,3.8,5.9,5.9,0,0,0,5.1-3.1C51.4,25.2,51,15.4,51,15ZM20.8,26.9A7.6,7.6,0,0,1,15,24c-4.6-5.5-3-21-3-21S32.6,6.8,33,18c.1,2.7-1.5,5.2-4.4,5.2h-1a48.4,48.4,0,0,0-10.8-13,.5.5,0,0,0-.6.8A46,46,0,0,1,26.7,23.5,7.3,7.3,0,0,1,20.8,26.9ZM48,29a4.8,4.8,0,0,1-4.2,2.6,6.4,6.4,0,0,1-5.5-3.7,19.6,19.6,0,0,1,5.4-5c.3-.1.4-.4.2-.6s-.4-.4-.6-.2A18.7,18.7,0,0,0,37.7,27h-.3c-2.1,0-2.3-3.3-1.4-5.1,3.3-6.7,14-7,14-7S50.4,24.9,48,29Z"/>
        <path d="M53.9,39.4a2.9,2.9,0,0,0-2.9-2l-1.4.3-10.8,5h-.1a3,3,0,0,0-3-2.6H29.8a16.4,16.4,0,0,1-4.9-1,19.2,19.2,0,0,0-5.6-1,13.8,13.8,0,0,0-7.4,2l-3,1.4A2,2,0,0,0,7,40H2a2,2,0,0,0-2,2V54a2,2,0,0,0,2,2H7a2,2,0,0,0,2-1.9,37.5,37.5,0,0,1,9.8-1.3h.6a29.9,29.9,0,0,1,8.5.9,6.5,6.5,0,0,0,4.5-.4c5.3-2.3,14-6.9,19.1-9.8C54.2,41.9,54.1,40.1,53.9,39.4ZM8,54a.9.9,0,0,1-1,1H2a.9.9,0,0,1-1-1V42a.9.9,0,0,1,1-1H7a.9.9,0,0,1,1,1ZM51,42.6c-5.1,2.9-13.8,7.5-19,9.8a5.9,5.9,0,0,1-3.9.3,31,31,0,0,0-8.7-.9h-.6A38.1,38.1,0,0,0,9,53V42.5l3.4-1.6A12.5,12.5,0,0,1,19.3,39a18.4,18.4,0,0,1,5.3,1,17.2,17.2,0,0,0,5.2,1h5.9a2.1,2.1,0,0,1,2.1,1.8,2.7,2.7,0,0,1-2.6,2.3H20.9v1.1H35.2a3.6,3.6,0,0,0,3.3-2.3l11.6-5.3.9-.2a1.9,1.9,0,0,1,1.9,1.3C53.2,40.7,52.5,41.7,51,42.6Z"/>
      </g>
    </g>
  </g>
</svg>
