<svg xmlns="http://www.w3.org/2000/svg" width="58" height="58" viewBox="0 0 58 58">
  <defs>
    <style>
      .cls-1 {
        opacity: 0;
      }

      .cls-2 {
        fill: #fff;
      }
    </style>
  </defs>
  <title>children</title>
  <g id="Слой_2" data-name="Слой 2">
    <g id="Слой_1-2" data-name="Слой 1">
      <g>
        <g class="cls-1">
          <rect class="cls-2" width="58" height="58"/>
        </g>
        <path d="M45.9,38.3H46v-.8a13.4,13.4,0,0,0-.4-3.5H46a6,6,0,0,0,0-12,5.9,5.9,0,0,0-3.7,1.3A14,14,0,0,0,44,16.5a16.3,16.3,0,0,0-.7-4.5A6,6,0,0,0,43,0a5.9,5.9,0,0,0-5.7,4.3,14.4,14.4,0,0,0-15.6,0A5.9,5.9,0,0,0,16,0a6,6,0,0,0-.3,12,16.3,16.3,0,0,0-.7,4.5,14,14,0,0,0,1.7,6.8A5.9,5.9,0,0,0,13,22a6,6,0,0,0,0,12h.4a19.7,19.7,0,0,0-.4,3.5v.8c-3.4,1.1-6,5-6,9.7s3.6,10,8,10,5.9-2.3,7.2-5.7a16.5,16.5,0,0,0,14.6,0c1.3,3.4,4,5.7,7.2,5.7s8-4.5,8-10S49.4,39.4,45.9,38.3ZM46,23a5,5,0,1,1-5,5A5,5,0,0,1,46,23ZM43,1a5,5,0,0,1,5,5,5,5,0,0,1-5,5h-.1a13.8,13.8,0,0,0-4.8-6.1A5,5,0,0,1,43,1ZM11,6a5,5,0,0,1,9.8-1.1A15.7,15.7,0,0,0,16.1,11H16A5,5,0,0,1,11,6Zm5,10.5A13.5,13.5,0,1,1,30,30V21.9l2.4-1A.9.9,0,0,0,33,20c0-1.4-.5-3-3.1-3h-.8c-2.6,0-3.1,1.6-3.1,3a.9.9,0,0,0,.6.9l2.4,1V30A13.5,13.5,0,0,1,16,16.5ZM29,38v6a7.5,7.5,0,0,1-3.8-13.6A23.2,23.2,0,0,0,29,31h1a23.2,23.2,0,0,0,3.8-.6A7.3,7.3,0,0,1,37,36.5,7.5,7.5,0,0,1,30,44V38Zm.5-17L27,20c0-1.7,1-2,2.1-2h.8c1.1,0,2.1.3,2.1,2ZM13,33a5,5,0,1,1,5-5A5,5,0,0,1,13,33Zm2,24c-3.9,0-7-4-7-9s3.1-9,7-9,7,4,7,9S18.9,57,15,57Zm21.5-5.7a15.3,15.3,0,0,1-14,0A11.4,11.4,0,0,0,23,48c0-5.5-3.6-10-8-10H14v-.6a15,15,0,0,1,.5-3.7A5.9,5.9,0,0,0,19,28a5.2,5.2,0,0,0-.3-1.8,14.5,14.5,0,0,0,5.4,3.7A8.7,8.7,0,0,0,21,36.5,8.5,8.5,0,0,0,29,45h1a8.5,8.5,0,0,0,8-8.5,8.7,8.7,0,0,0-3.1-6.6,14.5,14.5,0,0,0,5.4-3.7A5.2,5.2,0,0,0,40,28a5.9,5.9,0,0,0,4.5,5.8,15,15,0,0,1,.5,3.7v.6H44c-4.4,0-8,4.5-8,10A11.4,11.4,0,0,0,36.5,51.3ZM44,57c-3.9,0-7-4-7-9s3.1-9,7-9,7,4,7,9S47.9,57,44,57Z"/>
        <rect x="29" y="35" width="1" height="2"/>
        <path d="M37,17c-1.1,0-2-.7-2-1.5V15h1v.5c0,.2.4.5,1,.5s1-.3,1-.5V15h1v.5C39,16.3,38.1,17,37,17Z"/>
        <path d="M23,17c-1.1,0-2-.7-2-1.5V15h1v.5c0,.2.4.5,1,.5s1-.3,1-.5V15h1v.5C25,16.3,24.1,17,23,17Z"/>
      </g>
    </g>
  </g>
</svg>
