<svg xmlns="http://www.w3.org/2000/svg" width="58" height="58" viewBox="0 0 58 58">
  <defs>
    <style>
      .cls-1 {
        opacity: 0;
      }

      .cls-2 {
        fill: #fff;
      }
    </style>
  </defs>
  <title>weight</title>
  <g id="Слой_2" data-name="Слой 2">
    <g id="Слой_1-2" data-name="Слой 1">
      <g>
        <g class="cls-1">
          <rect class="cls-2" width="58" height="58"/>
        </g>
        <path d="M29,6a5,5,0,1,1-5,5,5,5,0,0,1,5-5m0-1a6,6,0,1,0,6,6,6,6,0,0,0-6-6Z"/>
        <path d="M29,1h1.2a10,10,0,0,1,8.7,8.5,10.1,10.1,0,0,1-2.2,7.8,1,1,0,0,0,.8,1.6h6.3a3.1,3.1,0,0,1,2.9,2.1l9.1,29A3,3,0,0,1,52.9,54H5.1a3,3,0,0,1-2.9-3.9l9.1-29A3.1,3.1,0,0,1,14.2,19h6.3a1,1,0,0,0,.8-1.6A10.2,10.2,0,0,1,19,11,10,10,0,0,1,29,1m0-1h0a11,11,0,0,0-8.5,18H14.2a3.9,3.9,0,0,0-3.8,2.8l-9.1,29A4,4,0,0,0,5.1,55H52.9a4,4,0,0,0,3.8-5.2l-9.1-29A3.9,3.9,0,0,0,43.8,18H37.5A11,11,0,0,0,30.3.1Z"/>
        <path d="M29.2,40H28l-4-4.6V40H23V31h1v4.4L27.9,31H29l-3.8,4.4Z"/>
        <path d="M35,31v1H31v8H30V31Z"/>
        <path d="M29,23A12,12,0,1,1,17,35,12,12,0,0,1,29,23m0-1A13,13,0,1,0,42,35,13,13,0,0,0,29,22Z"/>
      </g>
    </g>
  </g>
</svg>
