<svg xmlns="http://www.w3.org/2000/svg" width="58" height="58" viewBox="0 0 58 58">
  <defs>
    <style>
      .cls-1 {
        opacity: 0;
      }

      .cls-2 {
        fill: #fff;
      }
    </style>
  </defs>
  <title>assembly</title>
  <g id="Слой_2" data-name="Слой 2">
    <g id="Слой_1-2" data-name="Слой 1">
      <g>
        <g class="cls-1">
          <rect class="cls-2" width="58" height="58"/>
        </g>
        <path d="M54.5,2h-26c-.1,0-.2,0-.2.1H3A.9.9,0,0,0,2,3V54.5a.5.5,0,0,0,.5.5h26c.1,0,.2,0,.2-.1H54a.9.9,0,0,0,1-1V2.5A.5.5,0,0,0,54.5,2ZM54,3V28H47.2a5.8,5.8,0,0,0,.7-4.1,6,6,0,0,0-4.6-4.8H42a5.6,5.6,0,0,0-4.2,1.8A5.6,5.6,0,0,0,36,25a6.4,6.4,0,0,0,.8,3H29V20.2h0a6.1,6.1,0,0,0,3,.8,6.2,6.2,0,0,0,4.7-2.2,6.6,6.6,0,0,0,1.2-5.1,6,6,0,0,0-4.8-4.6H32a6.1,6.1,0,0,0-3,.8V3ZM3,3H28V9.8a1,1,0,0,0,1,1h.5A5.2,5.2,0,0,1,32,10h.9a4.9,4.9,0,0,1,4,3.8A5,5,0,0,1,32,20a4.3,4.3,0,0,1-2.5-.7H29a1,1,0,0,0-1,1V28H20.2a1,1,0,0,0-.9,1.5A4.3,4.3,0,0,1,20,32a5,5,0,0,1-5,5H13.9a4.9,4.9,0,0,1-3.8-4,5,5,0,0,1,.6-3.4A1,1,0,0,0,9.8,28H3V3ZM3,54V29H9.8a5.8,5.8,0,0,0-.7,4.1,6,6,0,0,0,4.6,4.8H15a6,6,0,0,0,6-6,6.4,6.4,0,0,0-.8-3H28v7.8h0a6.1,6.1,0,0,0-3-.8,6.2,6.2,0,0,0-4.7,2.2,6.6,6.6,0,0,0-1.2,5.1,6,6,0,0,0,4.8,4.6H25a6.1,6.1,0,0,0,3-.8V54Zm51,0H29V47.2a1,1,0,0,0-1-1h-.5A5.2,5.2,0,0,1,25,47h-.9a4.9,4.9,0,0,1-4-3.8A5,5,0,0,1,25,37a4.3,4.3,0,0,1,2.5.7H28a1,1,0,0,0,1-1V29h7.8a1,1,0,0,0,.9-1.5A4.3,4.3,0,0,1,37,25a5,5,0,0,1,5-5h1.1a4.9,4.9,0,0,1,3.8,4,5,5,0,0,1-.6,3.4,1,1,0,0,0,.9,1.5H54V54Z"/>
      </g>
    </g>
  </g>
</svg>
