<svg xmlns="http://www.w3.org/2000/svg" width="58" height="58" viewBox="0 0 58 58">
  <defs>
    <style>
      .cls-1 {
        opacity: 0;
      }

      .cls-2 {
        fill: #fff;
      }
    </style>
  </defs>
  <title>delivery</title>
  <g id="Слой_2" data-name="Слой 2">
    <g id="Слой_1-2" data-name="Слой 1">
      <g>
        <g class="cls-1">
          <rect class="cls-2" width="58" height="58"/>
        </g>
        <path d="M57.9,10.5,53,2.5a.9.9,0,0,0-.8-.5H10.8a.9.9,0,0,0-.8.5l-4.9,8A.7.7,0,0,0,5,11V32.2l-.6.2a1.5,1.5,0,0,0-.9,1L.1,43.7A1.5,1.5,0,0,0,.2,45a1.5,1.5,0,0,0,1,.9L5,47.2V53a.9.9,0,0,0,1,1H16.9l11.7,3.9a2.7,2.7,0,0,0,2-.2,2.4,2.4,0,0,0,1.3-1.5,2.8,2.8,0,0,0,0-1.8l2.8.9a2.3,2.3,0,0,0,2-.1A2.5,2.5,0,0,0,38,53.8V54H57a.9.9,0,0,0,1-1V11A.7.7,0,0,0,57.9,10.5ZM52.2,3l4.2,7H38V9.7L36,3ZM35,3l2,7H25l2-7Zm2,8V24l-6-4.3L25,24V11ZM10.8,3H26L24,9.7V10H6.6ZM1.1,44.6A1.3,1.3,0,0,1,1,44L4.4,33.7a.8.8,0,0,1,1-.4L10,34.8,6.9,44.4a5.8,5.8,0,0,0-.2,2.3L1.5,45A.8.8,0,0,1,1.1,44.6ZM6,53V47.5l.9.3a5.3,5.3,0,0,0,1.8,2.8,12.3,12.3,0,0,0,3.6,1.9l1.6.5Zm17.2-6,.9.3,1.1.3,10.9,3.6a1.7,1.7,0,0,1,1,2.1,1.6,1.6,0,0,1-.8,1,2,2,0,0,1-1.3.1l-4.7-1.6h0l-8.1-2.7a.6.6,0,0,0-.7.4c-.1.2.1.5.4.6l.9.3L30,53.8a1.6,1.6,0,0,1,.9.7,2,2,0,0,1,.1,1.3,1.6,1.6,0,0,1-2.1,1.1L12.6,51.5a10.9,10.9,0,0,1-3.2-1.7,4.7,4.7,0,0,1-1.5-5.1L11,34.9c.8-2.3,5.7-2.9,9.7-2.7l6.9.6h.5c.1.1.1.5.1.7v.6a1.4,1.4,0,0,1-.6,1.2,2.4,2.4,0,0,1-1.4.5l-5.1.2a.5.5,0,0,0-.5.5.4.4,0,0,0,.4.4h0l16.7,5.6a1.4,1.4,0,0,1,1,.8,2,2,0,0,1,.1,1.3,1.7,1.7,0,0,1-2.1,1l-4.2-1.3-8.1-2.7c-.3-.1-.6,0-.6.3v.2c.1.2.2.4.4.4l7.3,2.5,8.2,2.7a1.6,1.6,0,0,1,1,.8,1.9,1.9,0,0,1,.1,1.3,1.7,1.7,0,0,1-2.1,1L25.5,46.7,23.6,46a.7.7,0,0,0-.7.4C22.8,46.6,23,46.9,23.2,47ZM57,53H38.2a2,2,0,0,0-.2-1.1h.3a2.8,2.8,0,0,0,2-.2,2.7,2.7,0,0,0,1.3-1.5,2.6,2.6,0,0,0-.1-2.1,2.6,2.6,0,0,0-1.6-1.3l-1.2-.4a2.4,2.4,0,0,0,1-1.4,2.3,2.3,0,0,0-.1-2,2.9,2.9,0,0,0-1.5-1.4L24,37h2.3l1.3-.4a2.7,2.7,0,0,0,1.6-2.4v-.6a1.9,1.9,0,0,0-.4-1.4,1.8,1.8,0,0,0-1.1-.4l-6.9-.6h-.1c-2-.1-8.4-.2-10.2,2.7L6,32.4V11H24V24a1.1,1.1,0,0,0,.5.9H25l.6-.2L31,20.9l5.4,3.9.6.2h.5A1.1,1.1,0,0,0,38,24V11H57Z"/>
      </g>
    </g>
  </g>
</svg>
