<svg id="SvgjsSvg1070" xmlns="http://www.w3.org/2000/svg" version="1.1" xmlns:xlink="http://www.w3.org/1999/xlink" xmlns:svgjs="http://svgjs.com/svgjs" width="37" height="127" viewBox="0 0 37 127"><title>Fill 1</title><desc>Created with Avocode.</desc><defs id="SvgjsDefs1071"></defs><path id="SvgjsPath1072" d="M503.59 823.67C501.42999999999995 818.4599999999999 499.26 813.3 497.54999999999995 807.92C496.02 803.15 495.24999999999994 798.0699999999999 493.30999999999995 793.4699999999999C492.85999999999996 792.3999999999999 491.17999999999995 792.9999999999999 491.19999999999993 794.04C491.31999999999994 802.17 494.60999999999996 811.16 498.2199999999999 819.05C492.7499999999999 813.8399999999999 487.9599999999999 808.52 484.19999999999993 801.4699999999999C479.41999999999996 792.4999999999999 476.42999999999995 782.6299999999999 474.38999999999993 772.7099999999999C469.54999999999995 749.0999999999999 469.3399999999999 724.56 471.7099999999999 700.6499999999999C471.7899999999999 699.9099999999999 470.50999999999993 699.7299999999999 470.4099999999999 700.4699999999999C466.8299999999999 725.18 467.06999999999994 750.8899999999999 472.2399999999999 775.3799999999999C475.3799999999999 790.2399999999999 481.5499999999999 808.3399999999999 493.4399999999999 819.2999999999998C489.45999999999987 817.8299999999998 485.4499999999999 816.4399999999998 481.3699999999999 815.5699999999998C480.6699999999999 815.4099999999999 480.1799999999999 816.3899999999999 480.8599999999999 816.7699999999999C487.4299999999999 820.3799999999999 494.8799999999999 822.6399999999999 501.8199999999999 825.4399999999998C502.77999999999986 825.8199999999998 503.9899999999999 824.6399999999999 503.58999999999986 823.6699999999998 " fill="#cbd900" fill-opacity="1" transform="matrix(1,0,0,1,-467,-699)"></path></svg>