<svg xmlns="http://www.w3.org/2000/svg" width="30" height="30" viewBox="0 0 30 30">
  <defs>
    <style>
      .cls-1 {
        fill: #fff;
        fill-opacity: 0;
      }

      .cls-2 {
        fill: #333;
      }
    </style>
  </defs>
  <title>360</title>
  <g id="Слой_2" data-name="Слой 2">
    <g id="Слой_1-2" data-name="Слой 1">
      <g>
        <rect class="cls-1" width="30" height="30"/>
        <path class="cls-2" d="M12.1,16.1a2.2,2.2,0,0,1-2.4,2.3,1.9,1.9,0,0,1-2.1-1.7c0-.4.2-.6.4-.6s.5.2.6.5a1.1,1.1,0,0,0,1.1.8A1.2,1.2,0,0,0,11,16.2,1.1,1.1,0,0,0,9.8,15a.6.6,0,0,1-.6-.5c0-.3.3-.4.5-.5s.9-.4.9-1-.3-1.1-.9-1.1-.8.5-.9,1a.4.4,0,0,1-.5.5.5.5,0,0,1-.5-.5,1.9,1.9,0,0,1,2-1.9,1.8,1.8,0,0,1,1.9,1.9,1.8,1.8,0,0,1-.7,1.5A1.8,1.8,0,0,1,12.1,16.1Zm5.4-.1a2.2,2.2,0,0,1-2.2,2.4A2.4,2.4,0,0,1,13,15.9a6.5,6.5,0,0,1,2.5-4.7A.6.6,0,0,1,16,11a.5.5,0,0,1,.5.5c0,.2-.2.3-.4.5a8.5,8.5,0,0,0-1.4,1.7l.9-.2C17,13.5,17.5,14.8,17.5,16Zm-3.4-.1c0,.4.1,1.5,1.2,1.5s1.1-1.1,1.1-1.5-.4-1.4-1.1-1.4S14.1,15.2,14.1,15.9Zm9-1.2c0,2.2-1,3.7-2.5,3.7s-2.4-1.5-2.4-3.7,1-3.7,2.4-3.7S23.1,12.5,23.1,14.7Zm-1.1,0c0-1.7-.5-2.8-1.4-2.8s-1.3,1.1-1.3,2.8.5,2.7,1.3,2.7S22,16.4,22,14.7ZM15,2A12.8,12.8,0,0,0,2,15,13,13,0,0,0,15,28a13.3,13.3,0,0,0,8.8-3.3v1.8a.5.5,0,0,0,1,0v-3a.5.5,0,0,0-.5-.5h-3a.5.5,0,0,0-.5.5.5.5,0,0,0,.5.5h1.8A12.3,12.3,0,0,1,15,27,12,12,0,0,1,3,15,11.9,11.9,0,0,1,15,3,11.9,11.9,0,0,1,27,15a.5.5,0,0,0,1,0A12.8,12.8,0,0,0,15,2Z"/>
      </g>
    </g>
  </g>
</svg>
