<svg xmlns="http://www.w3.org/2000/svg" width="30" height="30" viewBox="0 0 30 30">
  <defs>
    <style>
      .cls-1 {
        fill: #fff;
        fill-opacity: 0;
      }

      .cls-2 {
        fill: #333;
      }
    </style>
  </defs>
  <title>3D</title>
  <g id="Слой_2" data-name="Слой 2">
    <g id="Слой_1-2" data-name="Слой 1">
      <g>
        <rect class="cls-1" width="30" height="30"/>
        <path class="cls-2" d="M15.7,3.7c-.1,0-.3,0-.3-.1L15,3.2l-.4.4c-.1.2-.5.2-.7,0a.5.5,0,0,1,0-.7l.7-.7L15,2h0l.4.2.7.7a.5.5,0,0,1,0,.7Zm4.5,4a.5.5,0,0,0,0-.7L18.8,5.6a.5.5,0,0,0-.7.7l1.4,1.4.3.2Zm6.9,8.4.7-.7a.6.6,0,0,0,0-.8l-.7-.7a.5.5,0,0,0-.7,0c-.2.2-.2.6,0,.7l.3.4-.3.4a.5.5,0,0,0,0,.7h.7Zm-8.3,8.3L20.2,23a.5.5,0,1,0-.7-.7l-1.4,1.4a.5.5,0,0,0,0,.7h.7ZM15,28l.4-.2.7-.7a.5.5,0,0,0,0-.7c-.2-.2-.6-.2-.7,0l-.4.4-.4-.4c-.1-.2-.5-.2-.7,0a.5.5,0,0,0,0,.7l.7.7.4.2Zm-3.1-3.6a.5.5,0,0,0,0-.7l-1.4-1.4a.5.5,0,1,0-.7.7l1.4,1.4h.7ZM3.5,16.1a.5.5,0,0,0,0-.7L3.2,15l.3-.4c.2-.1.2-.5,0-.7s-.5-.2-.7,0l-.7.7a.8.8,0,0,0,0,.8l.7.7h.7Zm7-8.4,1.4-1.4a.5.5,0,1,0-.7-.7L9.8,7a.5.5,0,0,0,0,.7l.3.2A.5.5,0,0,0,10.5,7.7ZM25,11v8a2,2,0,0,1-2,2H7a2,2,0,0,1-2-2V11A2,2,0,0,1,7,9H23A2,2,0,0,1,25,11ZM7,20H22V10H7a.9.9,0,0,0-1,1v8A.9.9,0,0,0,7,20Zm17-9a.9.9,0,0,0-1-1V20a.9.9,0,0,0,1-1Zm-5,5h0v1.5a.5.5,0,0,1-1,0V17H10v.5a.5.5,0,0,1-1,0V15H9v-.2H9a1,1,0,0,1,1-.8V13a.9.9,0,0,1,1-1h6a.9.9,0,0,1,1,1v1a.9.9,0,0,1,1,1Zm-8-2h6V13H11Zm7,2V15H10v1Z"/>
      </g>
    </g>
  </g>
</svg>
