<svg width="21" height="22" viewBox="0 0 21 22" fill="none" xmlns="http://www.w3.org/2000/svg">
<path fill-rule="evenodd" clip-rule="evenodd" d="M20 1H1L1 4H3.11726H17.8827H20V1ZM1 5H2.11715C2.11721 5.03645 2.11925 5.07329 2.12338 5.11043L3.90116 21.1104C3.95743 21.6169 4.38549 22 4.89504 22H16.105C16.6145 22 17.0426 21.6169 17.0988 21.1104L18.8766 5.11043C18.8807 5.07329 18.8828 5.03645 18.8829 5H20C20.5523 5 21 4.55228 21 4V1C21 0.447715 20.5523 0 20 0H1C0.447715 0 0 0.447715 0 1V4C0 4.55228 0.447715 5 1 5ZM4.89504 21L3.11726 5H17.8827L16.105 21L4.89504 21ZM6.99694 8.44478C6.96645 8.17033 6.71924 7.97256 6.44478 8.00306C6.17033 8.03355 5.97256 8.28076 6.00306 8.55522L7.00306 17.5552C7.03355 17.8297 7.28076 18.0274 7.55522 17.9969C7.82967 17.9664 8.02744 17.7192 7.99694 17.4448L6.99694 8.44478ZM14.5552 8.00306C14.8297 8.03355 15.0274 8.28076 14.9969 8.55522L13.9969 17.5552C13.9664 17.8297 13.7192 18.0274 13.4448 17.9969C13.1703 17.9664 12.9726 17.7192 13.0031 17.4448L14.0031 8.44478C14.0336 8.17033 14.2808 7.97256 14.5552 8.00306ZM11 8.5C11 8.22386 10.7761 8 10.5 8C10.2239 8 10 8.22386 10 8.5V17.5C10 17.7761 10.2239 18 10.5 18C10.7761 18 11 17.7761 11 17.5V8.5Z" fill="#E0E0E0"/>
</svg>
