<?xml version="1.0" encoding="utf-8"?>
<!-- Generator: Adobe Illustrator 23.1.0, SVG Export Plug-In . SVG Version: 6.00 Build 0)  -->
<svg version="1.1" id="Слой_1" xmlns="http://www.w3.org/2000/svg" xmlns:xlink="http://www.w3.org/1999/xlink" x="0px" y="0px"
	 viewBox="0 0 69.8 62.2" style="enable-background:new 0 0 69.8 62.2;" xml:space="preserve">
<style type="text/css">
	.st0{fill:#92BF2B;}
</style>
<path class="st0" d="M67.7,30.8V16.9c0-2.5-2-4.5-4.4-4.5c0,0-0.5,0-1.3,0c0.2-0.2,0.3-0.5,0.4-0.8c0.2-1.1-0.4-2-1.4-2.2l-1.4-0.3
	V8.9c0-2.5-2-4.5-4.4-4.5H35.9L14.6,0c-0.6-0.1-1.2,0-1.7,0.3c-0.4,0.3-0.6,0.6-0.7,1.1l-0.4,2.9C7.6,4.6,4.4,5.9,2.4,8.2
	c-2.7,3.1-2.4,7-2.3,7.7v33.7c0,4,1.2,7.2,3.6,9.4c3.1,3,7.4,3.2,8.6,3.2c0.2,0,0.4,0,0.4,0h50.7c2.4,0,4.4-2,4.4-4.5V44.1
	c0.5-0.2,0.9-0.4,1.2-0.7c0.8-0.8,0.9-1.8,0.9-2.3V34C69.8,33.2,69.6,31.4,67.7,30.8z M11.1,8.4l-0.3,2c-0.1,0.8,0.2,1.5,0.8,2
	c-1.5-0.2-2.7-0.7-3-1.3c-0.2-0.5,0-1.3,0.5-2.3C9.8,8.5,10.4,8.4,11.1,8.4z M22.2,12.3l0.3-1.4l7.9,1.7c-2.9,0-5.7,0-8.3,0
	C22.2,12.5,22.2,12.4,22.2,12.3z M5.2,12.8c1.5,2.9,5.6,3.4,7.3,3.5c13.1,0.6,50.5,0,50.8,0c0.2,0,0.4,0.3,0.4,0.6v13.6H54
	c-3.5,0-3.8,2.5-3.8,3.3V41c0,0.8,0.3,3.3,3.8,3.3h9.8v13.4c0,0.3-0.2,0.6-0.4,0.6H12.5c-0.4,0-3.8,0.1-6.2-2.1
	C4.7,54.7,4,52.5,4,49.6V15.8v-0.2c0,0-0.3-2.1,0.8-4C4.9,12,5,12.4,5.2,12.8z M53.9,34.3C53.9,34.2,53.9,34.2,53.9,34.3H66h0.1v6.4
	H66H54h-0.1V34.3z M36.9,11c-0.2-0.6-0.7-1-1.4-1.2l-14-3.1c-0.9-0.2-2.1,0.3-2.4,1.4l-0.7,3.2c-0.1,0.4,0,0.9,0.1,1.2
	c-1.7,0-3.3-0.1-4.6-0.1c0.4-0.3,0.6-0.7,0.7-1.2l1.1-7l19.5,4v0.1h0.3l20.8,4.2c-5.1,0.1-12.3,0.1-19.6,0.2
	C37,12.1,37.1,11.5,36.9,11z"/>
</svg>
