<?xml version="1.0" encoding="utf-8"?>
<!-- Generator: Adobe Illustrator 23.1.0, SVG Export Plug-In . SVG Version: 6.00 Build 0)  -->
<svg version="1.1" id="Слой_1" xmlns="http://www.w3.org/2000/svg" xmlns:xlink="http://www.w3.org/1999/xlink" x="0px" y="0px"
	 viewBox="0 0 90.4 87.8" style="enable-background:new 0 0 90.4 87.8;" xml:space="preserve">
<style type="text/css">
	.st0{fill:#92BF2B;}
</style>
<g>
	<path class="st0" d="M23.6,71l34.8,12.8c0.2,0.1,0.5,0,0.7,0h13.2v2.1c0,1.2,0.6,1.9,1.7,1.9h9.3c1.2,0,2.1-0.8,2.1-2s-0.9-2-2.1-2
		h-7v-25h11.9c1.2,0,2.1-0.8,2.1-2s-0.9-2-2.1-2H74.1c-1.2,0-1.7,0.7-1.7,1.8v4.2h-2.5l-8.9-8.2c-0.4-0.3-0.9-0.8-1.4-0.8H34.8
		c-1.1,0-2,1-2.1,2.1l-0.1,1c0,0,0,0.2,0,0.3c-0.1,1.9,0.5,3.7,1.6,5.7h-0.4l-6.1-9.5c-2.1-4-6.7-7.3-11.4-5.8L14,46.3
		c-0.2,0.1-0.3,0.1-0.4,0.2c-0.5,0.2-0.9,0.7-1.1,1.2c-0.1,0.4-0.1,0.8,0,1.2c-3.4-1.3-7.3-1.2-10,1.5L0.8,52
		c-0.1,0.1-0.2,0.2-0.3,0.3c-0.4,0.5-0.6,1-0.5,1.6s0.4,1.1,0.9,1.5l22.3,15.3C23.3,70.8,23.5,70.9,23.6,71z M17.5,49.5
		c2.5-0.8,5.2,1.3,6.5,3.8c0,0.1,0.1,0.1,0.1,0.2l2.1,3.2l-7-4c0-0.1,0-0.1-0.1-0.2L17.5,49.5L17.5,49.5z M5.4,53.3
		c1.9-1.9,5.2-1.2,7.5,0.4c0.1,0,18.6,10.8,18.6,10.8c0.3,0.2,0.7,0.3,1.1,0.3h22.3c1.2,0,2.1-0.8,2.1-2s-0.9-2-2.1-2H40.7
		c-0.9,0-1.8-0.6-2.6-1.5c-0.6-0.8-1-2.5-1.2-2.5h21.8l8.9,7.7c0.4,0.3,0.9,0.3,1.4,0.3h3.3v15H59.5L25.3,67.1L5.4,53.3L5.4,53.3z"
		/>
	<path class="st0" d="M17.6,37l21.2,10.2c0.3,0.1,0.6,0.2,0.9,0.2c0.3,0,0.6-0.1,0.9-0.2c0,0,0,0,0,0L62,37c0.7-0.4,1.3-1.1,1.3-1.9
		V12.3c0-0.7-0.5-1.4-1.1-1.8c0,0-0.1,0-0.2-0.1c0,0-0.1,0-0.1-0.1L40.8,0.2c-0.6-0.3-1.3-0.3-1.8,0L17.7,10.4c0,0-0.1,0-0.1,0.1
		c0,0-0.2,0-0.2,0.1c-0.6,0.4-1.1,1.1-1.1,1.8v22.8C16.3,35.9,16.9,36.6,17.6,37z M59.3,33.8l-17,8.2V23.8l17-8.2V33.8z M56.2,12.3
		l-16.3,7.9l-5.8-2.8l16.4-7.9L56.2,12.3z M39.8,4.4l5.8,2.8l-16.4,7.9l-5.8-2.8L39.8,4.4z M20.3,15.6l17,8.2V42l-17-8.2V15.6z"/>
	<path class="st0" d="M33,25.5l-6.3-3c-1-0.5-2.3-0.1-2.8,1c-0.5,1-0.1,2.3,1,2.8l6.3,3c0.3,0.1,0.6,0.2,0.9,0.2
		c0.8,0,1.5-0.4,1.9-1.2C34.5,27.3,34,26,33,25.5z"/>
</g>
</svg>
