<?xml version="1.0" encoding="utf-8"?>
<!-- Generator: Adobe Illustrator 23.1.0, SVG Export Plug-In . SVG Version: 6.00 Build 0)  -->
<svg version="1.1" id="Слой_1" xmlns="http://www.w3.org/2000/svg" xmlns:xlink="http://www.w3.org/1999/xlink" x="0px" y="0px"
	 viewBox="0 0 69.6 76.7" style="enable-background:new 0 0 69.6 76.7;" xml:space="preserve">
<style type="text/css">
	.st0{fill:#92BF2B;}
</style>
<g>
	<path class="st0" d="M1.9,71.3h15.2v5.4h14.2l5.4-5.4h25c1,0,1.9-0.8,1.9-1.9v-25l6.1-6.1l-6-6.1V1.9c0-1-0.8-1.9-1.9-1.9H1.9
		C0.8,0,0,0.8,0,1.9v67.6C0,70.5,0.8,71.3,1.9,71.3z M59.8,67.6H40.4l19.4-19.4V67.6z M64.4,38.3L29.7,73h-8.8v-8.8l34.7-34.7
		L64.4,38.3z M3.8,3.8h56.1v24.6l-4.3-4.3l-9.7,9.6H12.7v3.8h29.4L30.4,49.2H12.7V53h14l-9.6,9.6v5H3.8V3.8z"/>
	<rect x="12.7" y="18.4" class="st0" width="38.3" height="3.8"/>
</g>
</svg>
