<?xml version="1.0" encoding="utf-8"?>
<!-- Generator: Adobe Illustrator 23.1.0, SVG Export Plug-In . SVG Version: 6.00 Build 0)  -->
<svg version="1.1" id="Слой_1" xmlns="http://www.w3.org/2000/svg" xmlns:xlink="http://www.w3.org/1999/xlink" x="0px" y="0px"
	 viewBox="0 0 71.2 90.9" style="enable-background:new 0 0 71.2 90.9;" xml:space="preserve">
<style type="text/css">
	.st0{fill:#92BF2B;}
</style>
<g>
	<g>
		<path class="st0" d="M35.6,0C16,0,0,16,0,35.6c0,19.1,32.7,53.3,34.1,54.7c0.4,0.4,0.9,0.6,1.5,0.6s1.1-0.2,1.5-0.6
			c1.4-1.4,34.1-35.6,34.1-54.7C71.2,16,55.2,0,35.6,0z M35.6,85.9c-6.4-6.9-31.4-35-31.4-50.3c0-17.3,14.1-31.4,31.4-31.4
			S67,18.2,67,35.6C67,50.9,42,78.9,35.6,85.9z"/>
		<path class="st0" d="M56.1,22l-19.6-9.4c-0.6-0.3-1.2-0.3-1.8,0L15.1,22c0,0-0.1,0-0.1,0.1c0,0-0.1,0-0.1,0.1c-0.6,0.4-1,1-1,1.7
			V45c0,0.8,0.5,1.5,1.2,1.9l19.6,9.5c0.3,0.1,0.6,0.2,0.9,0.2c0.3,0,0.6-0.1,0.9-0.2c0,0,0,0,0,0l19.6-9.5c0.7-0.3,1.2-1.1,1.2-1.9
			V23.9c0,0,0,0,0,0C57.3,23.1,56.8,22.4,56.1,22z M35.6,31l-5-2.4l14.9-7.1l5,2.4l-3.7,1.8L35.6,31z M35.6,16.7l5.1,2.4l-14.9,7.1
			l-5.1-2.4L35.6,16.7z M18,27.2l15.5,7.5v16.5L18,43.7V27.2z M37.6,51.2V34.6l11.1-5.4l4.4-2.1v16.5L37.6,51.2z"/>
		<path class="st0" d="M29.3,36l-5.8-2.8c-1-0.5-2.3-0.1-2.8,1c-0.5,1-0.1,2.3,1,2.8l5.8,2.8c0.3,0.1,0.6,0.2,0.9,0.2
			c0.8,0,1.5-0.4,1.9-1.2C30.7,37.7,30.3,36.5,29.3,36z"/>
	</g>
</g>
</svg>
