<svg version="1.1" id="Layer_1" xmlns="http://www.w3.org/2000/svg"  x="0px" y="0px"
	 viewBox="0 0 16 16" style="enable-background:new 0 0 16 16;" xml:space="preserve">
	<g fill="black">
		<path class="st0" d="M14.4,4.6h-1.9C12.6,2,10.4,0,7.9,0S3.3,2,3.3,4.6H1.4L0.5,16h14.9L14.4,4.6z M1.9,5.1h1.9V4.6
			c0-2.2,1.8-4.1,4.1-4.1S12,2.4,12,4.6v0.5h1.9l0.8,10.4H1L1.9,5.1z"/>
		<path class="st0" d="M8,1.6c-1.7,0-3,1.3-3,3v0.5h6V4.6C11,2.9,9.7,1.6,8,1.6z M5.5,4.6c0-1.5,1.2-2.5,2.5-2.5
			c1.3,0,2.5,1.1,2.5,2.5H5.5z"/>
	</g>
</svg>
