<?xml version="1.0" encoding="utf-8"?>
<!-- Generator: Adobe Illustrator 23.1.0, SVG Export Plug-In . SVG Version: 6.00 Build 0)  -->
<svg version="1.1" id="Слой_1" xmlns="http://www.w3.org/2000/svg" xmlns:xlink="http://www.w3.org/1999/xlink" x="0px" y="0px"
	 viewBox="0 0 39.9 50" style="enable-background:new 0 0 39.9 50;" xml:space="preserve">
<style type="text/css">
	.st0{fill:none;stroke:#000000;stroke-width:2;stroke-linecap:round;stroke-linejoin:round;stroke-miterlimit:10;}
</style>
<g>
	<path class="st0" d="M14,21.3c0,1.3-1,2.3-2.3,2.3c-1.3,0-2.3-1-2.3-2.3c0-1.3,1-2.3,2.3-2.3C13,19,14,20,14,21.3z"/>
	<path class="st0" d="M14,21.3c0,1.3-1,2.3-2.3,2.3c-1.3,0-2.3-1-2.3-2.3c0-1.3,1-2.3,2.3-2.3C13,19,14,20,14,21.3z"/>
	<path class="st0" d="M38.9,47.1l-4.1-31.8c-0.1-0.8-0.8-1.5-1.7-1.5H6.8c-0.8,0-1.5,0.6-1.7,1.5L1,47.1c-0.1,1,0.6,1.9,1.7,1.9
		h34.6C38.3,49,39,48.1,38.9,47.1z M11.7,23.6c-1.3,0-2.3-1-2.3-2.3c0-1.3,1-2.3,2.3-2.3c1.3,0,2.3,1,2.3,2.3
		C14,22.6,13,23.6,11.7,23.6z M28.2,23.6c-1.3,0-2.3-1-2.3-2.3c0-1.3,1.1-2.3,2.3-2.3c1.3,0,2.3,1,2.3,2.3
		C30.6,22.6,29.5,23.6,28.2,23.6z"/>
	<path class="st0" d="M11.7,19V9.3C11.7,4.7,15.4,1,20,1h0c4.6,0,8.3,3.7,8.3,8.3V19"/>
</g>
</svg>
