<?xml version="1.0" encoding="utf-8"?>
<!-- Generator: Adobe Illustrator 23.1.0, SVG Export Plug-In . SVG Version: 6.00 Build 0)  -->
<svg version="1.1" id="Слой_1" xmlns="http://www.w3.org/2000/svg" xmlns:xlink="http://www.w3.org/1999/xlink" x="0px" y="0px"
	 viewBox="0 0 69.9 46.3" style="enable-background:new 0 0 69.9 46.3;" xml:space="preserve">
<style type="text/css">
	.st0{fill:#92BF2B;}
</style>
<g>
	<path class="st0" d="M64,0H5.9C2.6,0,0,2.6,0,5.9v34.5c0,3.2,2.6,5.9,5.9,5.9H64c3.2,0,5.9-2.6,5.9-5.9V5.9C69.9,2.6,67.2,0,64,0z
		 M3.9,7.8v-2c0-1.1,0.8-2,2-2H64c1.1,0,2,0.8,2,2v2H3.9z M3.9,15.7v-3.9h62v3.9H3.9z M65.9,40.4c0,1.1-0.8,2-2,2H5.9
		c-1.1,0-2-0.8-2-2V19.6h62V40.4z"/>
	<path class="st0" d="M47.5,38.5c1.4,0,2.8-0.5,3.9-1.3c1.1,0.8,2.5,1.3,3.9,1.3c3.7,0,6.7-3,6.7-6.7s-3-6.7-6.7-6.7
		c-1.4,0-2.7,0.4-3.9,1.3c-1.1-0.8-2.5-1.3-3.9-1.3c-3.7,0-6.7,3-6.7,6.7C40.8,35.5,43.8,38.5,47.5,38.5z M44.7,31.8
		c0-1.5,1.2-2.7,2.7-2.7c1.5,0,2.7,1.2,2.7,2.7c0,1.5-1.2,2.7-2.7,2.7C45.9,34.5,44.7,33.3,44.7,31.8z M53.8,29.5
		c0.4-0.3,0.9-0.5,1.6-0.5c1.5,0,2.7,1.2,2.7,2.7s-1.2,2.7-2.7,2.7c-0.6,0-1.1-0.2-1.6-0.5c0.3-0.7,0.4-1.5,0.4-2.2
		C54.2,31,54,30.3,53.8,29.5z"/>
</g>
</svg>
