<?xml version="1.0" encoding="utf-8"?>
<!-- Generator: Adobe Illustrator 23.1.0, SVG Export Plug-In . SVG Version: 6.00 Build 0)  -->
<svg version="1.1" id="Слой_1" xmlns="http://www.w3.org/2000/svg" xmlns:xlink="http://www.w3.org/1999/xlink" x="0px" y="0px"
	 viewBox="0 0 41.1 41.1" style="enable-background:new 0 0 41.1 41.1;" xml:space="preserve">
<style type="text/css">
	.st0{fill:none;stroke:#000000;stroke-width:2;stroke-linecap:round;stroke-linejoin:round;stroke-miterlimit:10;}
</style>
<g>
	<path class="st0" d="M26.1,28c-0.3-0.3-0.8-0.3-1.2,0l-2.2,2.2c-1.3,1.3-5.1-0.3-8.4-3.6c-3.3-3.3-4.9-7-3.6-8.4l2.2-2.2
		c0.3-0.3,0.3-0.8,0-1.2L6.4,8.3C6,8,5.5,8,5.2,8.3l-3.1,3.1c-3.1,3.1,0.6,11.7,8.2,19.4S26.6,42,29.7,39l3.1-3.1
		c0.3-0.3,0.3-0.8,0-1.2L26.1,28z"/>
	<g>
		<path class="st0" d="M18,10.2c7.1,0,12.8,5.7,12.8,12.8"/>
		<path class="st0" d="M17.6,1C30,1,40.1,11,40.1,23.4"/>
	</g>
</g>
</svg>
