<svg xmlns="http://www.w3.org/2000/svg" width="30" height="30" viewBox="0 0 30 30">
  <defs>
    <style>
      .cls-1 {
        fill: #fff;
        fill-opacity: 0;
      }

      .cls-2 {
        fill: #333;
      }
    </style>
  </defs>
  <title>press &amp;amp; drag-2</title>
  <g id="Слой_2" data-name="Слой 2">
    <g id="Слой_1-2" data-name="Слой 1">
      <g>
        <rect class="cls-1" width="30" height="30"/>
        <path class="cls-2" d="M25.8,12.5l-.8.2a2.4,2.4,0,0,0-2.3-2.2,2,2,0,0,0-1.5.6,2,2,0,0,0-2-1.5,2.3,2.3,0,0,0-1.6.6V8a3.7,3.7,0,0,0,1-2.5,3.5,3.5,0,0,0-7,0,3.4,3.4,0,0,0,1.3,2.7l.2,6.5a6.1,6.1,0,0,0-1.2.9c-1.8,1.6-2.4,4.5-.4,7.5S16.3,28,20.3,28s5.6-2.1,6.7-4.3,1-8.8,1-9.2A2.2,2.2,0,0,0,25.8,12.5Zm.3,10.8c-1,2-2.2,3.7-5.8,3.7a8.6,8.6,0,0,1-8-4.4c-1.3-1.8-1.8-4.5.2-6.3l.5-.4v3.4a.5.5,0,0,0,1,0L13.7,6.5A1.4,1.4,0,0,1,15.1,5a1.3,1.3,0,0,1,1.3,1.5l.3,6.9c0,.2.2.4.5.5a.5.5,0,0,0,.5-.5L18,12h0a1.2,1.2,0,1,1,2.4,0v1a.5.5,0,0,0,.5.5.6.6,0,0,0,.5-.5,1.3,1.3,0,0,1,1.3-1.4A1.3,1.3,0,0,1,24,12.9V15a.5.5,0,0,0,1,0V13.8l.8-.3a1.2,1.2,0,0,1,1.2,1C27,16.8,26.8,21.8,26.1,23.3ZM10.9,6.9l-1,1H9.3A.5.5,0,0,1,9,7.5V7H7V9h.5a.5.5,0,0,1,.5.3,1.3,1.3,0,0,1-.1.6l-1,1H6.1l-1-1A1.3,1.3,0,0,1,5,9.3.5.5,0,0,1,5.5,9H6V7H4v.5a.5.5,0,0,1-.3.5H3.1l-1-1a1.1,1.1,0,0,1,0-.8l1-1h.6a.5.5,0,0,1,.3.5V6H6V4H5.5A.5.5,0,0,1,5,3.7a1.3,1.3,0,0,1,.1-.6l1-1a1.1,1.1,0,0,1,.8,0l1,1a1.3,1.3,0,0,1,.1.6.5.5,0,0,1-.5.3H7V6H9V5.5A.5.5,0,0,1,9.3,5h.6l1,1A1.1,1.1,0,0,1,10.9,6.9Z"/>
      </g>
    </g>
  </g>
</svg>
