<svg xmlns="http://www.w3.org/2000/svg" width="30" height="30" viewBox="0 0 30 30">
  <defs>
    <style>
      .cls-1 {
        fill: #fff;
        fill-opacity: 0;
      }

      .cls-2 {
        fill: #333;
      }
    </style>
  </defs>
  <title>press &amp;amp; drag</title>
  <g id="Слой_2" data-name="Слой 2">
    <g id="Слой_1-2" data-name="Слой 1">
      <g>
        <rect class="cls-1" width="30" height="30"/>
        <path class="cls-2" d="M10.9,6.9l-1,1H9.3A.5.5,0,0,1,9,7.5V7H7V9h.5a.5.5,0,0,1,.5.3,1.3,1.3,0,0,1-.1.6l-1,1H6.1l-1-1A1.3,1.3,0,0,1,5,9.3.5.5,0,0,1,5.5,9H6V7H4v.5a.5.5,0,0,1-.3.5H3.1l-1-1a1.1,1.1,0,0,1,0-.8l1-1h.6a.5.5,0,0,1,.3.5V6H6V4H5.5A.5.5,0,0,1,5,3.7a1.3,1.3,0,0,1,.1-.6l1-1a1.1,1.1,0,0,1,.8,0l1,1a1.3,1.3,0,0,1,.1.6.5.5,0,0,1-.5.3H7V6H9V5.5A.5.5,0,0,1,9.3,5h.6l1,1A1.1,1.1,0,0,1,10.9,6.9ZM28,14.5c0,.4,0,7.2-1,9.2S24.5,28,20.3,28s-6.6-1.5-8.9-4.9-1.4-5.9.4-7.5a6.1,6.1,0,0,1,1.2-.9l-.2-4.5a3.4,3.4,0,0,1-1.3-2.7A3.5,3.5,0,0,1,15,4l1.2.2h0A3.6,3.6,0,0,1,19.5,2,3.5,3.5,0,0,1,23,5.5a3.4,3.4,0,0,1-1.6,2.9V11a1.9,1.9,0,0,1,1.3-.5A2.4,2.4,0,0,1,25,12.7l.9-.2A2.2,2.2,0,0,1,28,14.5Zm-11-9v.3A2.3,2.3,0,0,1,19.2,4a2.2,2.2,0,0,1,2.2,2.3v.8A2.3,2.3,0,0,0,22,5.5a2.5,2.5,0,0,0-5,0Zm10,9a1.2,1.2,0,0,0-1.1-1c-.3,0-.9.2-.9.3V15a.5.5,0,0,1-.5.5A.5.5,0,0,1,24,15V12.9a1.3,1.3,0,1,0-2.6,0,.5.5,0,0,1-1,0V6.3a1.2,1.2,0,1,0-2.4,0l-.3,7.2a.5.5,0,0,1-1,0l-.3-5A1.3,1.3,0,0,0,15.1,7a1.4,1.4,0,0,0-1.4,1.5l.4,10.8a.5.5,0,0,1-1,0V15.9l-.5.4c-2,1.8-1.5,4.5-.2,6.3a8.6,8.6,0,0,0,8,4.4c3.6,0,4.8-1.7,5.8-3.7S27,16.7,27,14.5Z"/>
      </g>
    </g>
  </g>
</svg>
