<svg xmlns="http://www.w3.org/2000/svg" width="30" height="30" viewBox="0 0 30 30">
  <defs>
    <style>
      .cls-1 {
        fill: #fff;
        fill-opacity: 0;
      }

      .cls-2 {
        fill: #333;
      }
    </style>
  </defs>
  <title>rotate-</title>
  <g id="Слой_2" data-name="Слой 2">
    <g id="Слой_1-2" data-name="Слой 1">
      <g>
        <rect class="cls-1" width="30" height="30"/>
        <path class="cls-2" d="M24.8,12.9a2.1,2.1,0,0,0-1.9-1.2h-.7l-.7.4a2.4,2.4,0,0,0-2.1-1.4l-.8.2a2.1,2.1,0,0,0-1.1.8L15.6,6.6A2.1,2.1,0,0,0,13.5,5l-.7.2a2.3,2.3,0,0,0-1.4,2.9l.2.7a2,2,0,0,0-2.1-.3A2.3,2.3,0,0,0,8.1,9.8a2.8,2.8,0,0,0,0,1.8l2.7,6.6-.9,1.3c-1.1,2.1-.6,5,2.3,7.2A9.9,9.9,0,0,0,18.3,29a11.5,11.5,0,0,0,3.9-.7c3.9-1.5,4.5-3.9,4.8-6.3S24.9,13.3,24.8,12.9Zm1.2,9c-.3,2.2-.8,4.2-4.2,5.4a9.1,9.1,0,0,1-3.5.7,8.9,8.9,0,0,1-5.5-2.1c-1.8-1.3-3.2-3.6-2-6l.4-.6,1.2,3.3a.6.6,0,0,0,.7.2.5.5,0,0,0,.3-.6L9.1,11.3a1.3,1.3,0,0,1,0-1.2,1,1,0,0,1,.7-.7,1.4,1.4,0,0,1,1.8,1l2.2,5.3a.5.5,0,0,0,.7.3.7.7,0,0,0,.3-.6L12.3,7.8a1.3,1.3,0,0,1,.8-1.7,1.2,1.2,0,0,1,1.6.8l2.5,7h0a.5.5,0,0,0,.7.3c.2-.1.2-.3.2-.6h0a1.7,1.7,0,0,1,.1-1,1.1,1.1,0,0,1,.8-.7h.4a1.4,1.4,0,0,1,1.3.9l.7,2a.5.5,0,0,0,.7.3c.4-.1.3-.6.3-.6l-.5-1.2a1.5,1.5,0,0,1,.6-.5h.4a1.1,1.1,0,0,1,1,.6C24.6,15.4,26.2,20.2,26,21.9ZM21.5,6.4l-.6,1.3-.2.3h-.4L19,7.4a.5.5,0,0,1-.3-.5.9.9,0,0,1,.3-.5h.4A7.9,7.9,0,0,0,13,3,8,8,0,0,0,8.5,17.6l.3.6-.4.5a9,9,0,1,1,12-12.8l.5-.2a.7.7,0,0,1,.6.2A.4.4,0,0,1,21.5,6.4Z"/>
      </g>
    </g>
  </g>
</svg>
