<svg xmlns="http://www.w3.org/2000/svg" width="30" height="30" viewBox="0 0 30 30">
  <defs>
    <style>
      .cls-1 {
        fill: #fff;
        fill-opacity: 0;
      }

      .cls-2 {
        fill: #333;
      }
    </style>
  </defs>
  <title>rotate</title>
  <g id="Слой_2" data-name="Слой 2">
    <g id="Слой_1-2" data-name="Слой 1">
      <g>
        <rect class="cls-1" width="30" height="30"/>
        <path class="cls-2" d="M24.7,13a1.9,1.9,0,0,0-1.9-1.3h-.7a2.5,2.5,0,0,0-.8.5,2.2,2.2,0,0,0-2.1-1.4h-.8a2.9,2.9,0,0,0-1.2,1,2.1,2.1,0,0,0-2.4-.7,1.8,1.8,0,0,0-1.2,1.2l-1-2.4A4.2,4.2,0,0,0,13,8.5a3.5,3.5,0,0,0-7,0,3.6,3.6,0,0,0,2.2,3.3l2.5,6.5a4.8,4.8,0,0,0-.8,1.2c-1.1,2.1-.6,5.1,2.3,7.2A9.9,9.9,0,0,0,18.3,29a11.1,11.1,0,0,0,3.9-.7c3.9-1.5,4.5-3.9,4.8-6.3S24.9,13.3,24.7,13ZM26,21.9c-.3,2.2-.8,4.2-4.1,5.4a10,10,0,0,1-3.6.7,8.9,8.9,0,0,1-5.5-2.1c-1.7-1.3-3.2-3.6-2-5.9a4.3,4.3,0,0,1,.4-.7l1.2,3.3a.8.8,0,0,0,.7.3.6.6,0,0,0,.2-.7L8.6,9.9a1.3,1.3,0,0,1,.7-1.8,1.4,1.4,0,0,1,1.8.9l2.7,6.7a.4.4,0,0,0,.6.3.4.4,0,0,0,.3-.5L14.5,14h0a.9.9,0,0,1,0-1,1.2,1.2,0,0,1,.7-.7,1.2,1.2,0,0,1,1.5.9l.4.9h0c0,.3.3.4.6.3s.4-.4.3-.6h0a1.7,1.7,0,0,1,0-1,1.1,1.1,0,0,1,.8-.7h.4a1.4,1.4,0,0,1,1.3.9l.8,2a.4.4,0,0,0,.6.3c.3-.1.3-.3.2-.7l-.4-1.1.7-.5h.4a1.1,1.1,0,0,1,1,.6C24.6,15.4,26.2,20.2,26,21.9Zm-9.1-13-1,1h-.8l-1-1a1.3,1.3,0,0,1-.1-.6.5.5,0,0,1,.5-.3H15A5.5,5.5,0,0,0,4,8.5a5.4,5.4,0,0,0,2.8,4.8l.5,1.3A6.5,6.5,0,1,1,16,8h.5a.5.5,0,0,1,.5.3A1.3,1.3,0,0,1,16.9,8.9Z"/>
      </g>
    </g>
  </g>
</svg>
