<?xml version="1.0" encoding="utf-8"?>
<!-- Generator: Adobe Illustrator 23.1.0, SVG Export Plug-In . SVG Version: 6.00 Build 0)  -->
<svg version="1.1" id="Layer_1" xmlns="http://www.w3.org/2000/svg" xmlns:xlink="http://www.w3.org/1999/xlink" x="0px" y="0px"
	 viewBox="0 0 330 330" style="enable-background:new 0 0 330 330;" xml:space="preserve">
<path id="XMLID_7_" d="M100.6,4.4c-5.9-5.9-15.4-5.9-21.2,0l-75,75C1.5,82.3,0,86.2,0,90s1.5,7.7,4.4,10.6c5.9,5.9,15.4,5.9,21.2,0
	L75,51.2V315c0,8.3,6.7,15,15,15h225c8.3,0,15-6.7,15-15s-6.7-15-15-15H105V51.2l49.4,49.4c5.9,5.9,15.4,5.9,21.2,0
	c5.9-5.9,5.9-15.4,0-21.2L100.6,4.4z"/>
</svg>
