<svg xmlns="http://www.w3.org/2000/svg" width="30" height="30" viewBox="0 0 30 30">
  <defs>
    <style>
      .cls-1 {
        fill: #333;
      }

      .cls-2 {
        fill: #fff;
        opacity: 0;
      }
    </style>
  </defs>
  <title>Ресурс 3</title>
  <g id="Слой_2" data-name="Слой 2">
    <g id="Слой_1-2" data-name="Слой 1">
      <g>
        <path class="cls-1" d="M12.5,19h-.2a.5.5,0,0,1-.3-.4V11.6l.2-.4h.5l6,3.4c.2.1.3.2.3.4s-.1.3-.3.4l-6,3.5Zm.5-6.5v5.1L17.5,15Z"/>
        <path class="cls-1" d="M15,3A12,12,0,1,1,3,15,12,12,0,0,1,15,3m0-1A13,13,0,1,0,28,15,13,13,0,0,0,15,2Z"/>
        <rect class="cls-2" width="30" height="30"/>
      </g>
    </g>
  </g>
</svg>
