<svg xmlns="http://www.w3.org/2000/svg" width="30" height="30" viewBox="0 0 30 30">
  <defs>
    <style>
      .cls-1 {
        fill: #fff;
        fill-opacity: 0;
      }

      .cls-2 {
        fill: #333;
      }
    </style>
  </defs>
  <title>zoom</title>
  <g id="Слой_2" data-name="Слой 2">
    <g id="Слой_1-2" data-name="Слой 1">
      <g>
        <rect class="cls-1" width="30" height="30"/>
        <path class="cls-2" d="M5,3.7a.5.5,0,0,1-.5.3H4V6.5a.5.5,0,0,1-.5.5A.5.5,0,0,1,3,6.5V4H2.5A.5.5,0,0,1,2,3.7a1.3,1.3,0,0,1,.1-.6l1-1a1.1,1.1,0,0,1,.8,0l1,1A1.3,1.3,0,0,1,5,3.7Zm0,8.6a.5.5,0,0,0-.5-.3H4V9.5A.5.5,0,0,0,3.5,9a.5.5,0,0,0-.5.5V12H2.5a.5.5,0,0,0-.5.3,1.3,1.3,0,0,0,.1.6l1,1h.8l1-1A1.3,1.3,0,0,0,5,12.3ZM27.4,23.5c-1,2.1-2.3,4.3-6.5,4.5a11.2,11.2,0,0,1-3.2-.4h0A14.7,14.7,0,0,1,12.4,24l-.4-.4L8.1,20a3.5,3.5,0,0,1,.4-7A3.6,3.6,0,0,1,12,16.1l1.3,1.3a49.6,49.6,0,0,0-.7-6.5,16.8,16.8,0,0,0-.8-2A3.4,3.4,0,0,1,9,5.5a3.5,3.5,0,0,1,7,0,2.8,2.8,0,0,1-.3,1.3l.3.4c.3.7.6,1.6.9,2.5A2.9,2.9,0,0,1,19,8.6h.8A2.3,2.3,0,0,1,21.2,10a3.5,3.5,0,0,1,1.4-.6h.8a2.4,2.4,0,0,1,1.6,2l.8-.2h.7a1.8,1.8,0,0,1,1.4,1.8C27.9,13.5,28.3,21.4,27.4,23.5Zm-19.8-4h0Zm19.3-6.3a1,1,0,0,0-.7-.9h-.4l-.7.2v1.3a.5.5,0,0,1-1,0V11.7a1.4,1.4,0,0,0-1-1.2h-.4a1.1,1.1,0,0,0-.9.5,1.1,1.1,0,0,0-.4.9v.8a.5.5,0,0,1-.5.5.4.4,0,0,1-.5-.4V10.9a1.2,1.2,0,0,0-.9-1.2H19a1.6,1.6,0,0,0-1.6,1.6v1.3c0,.2-.2.5-.4.5a.5.5,0,0,1-.6-.4,22.9,22.9,0,0,0-1.4-4.9C14.2,6,13.2,4.9,12.5,5a1,1,0,0,0-.9.4,1.3,1.3,0,0,0-.2,1.2,2.4,2.4,0,0,0,.6.9,7.8,7.8,0,0,1,1.6,3.2,69.4,69.4,0,0,1,.7,7.9c0,.2-.1.4-.3.4s-.4.1-.5-.1l-2.9-2.7-.7-.4a1.6,1.6,0,0,0-1.7.5,1.6,1.6,0,0,0,.1,2.4,57.7,57.7,0,0,0,4.3,4.2l.5.4c1.6,1.5,3,2.8,4.9,3.4h0a12.9,12.9,0,0,0,2.9.3c3.6-.2,4.6-1.9,5.6-3.9S27,15.4,26.9,13.2Z"/>
      </g>
    </g>
  </g>
</svg>
